# xmcd
#
# Track frame offsets: 
#        150
#        14230
#        26997
#        42375
#        50170
#        63547
#        76777
#        89567
#        109775
#        126332
#        137872
#        149577
#
# Disc length: 2161 seconds
#
# Revision: 2
# Processed by: cddbd v1.5.1PL0 Copyright (c) Steve Scherf et al.
# Submitted via: ExactAudioCopy v0.95a4
#
DISCID=bd086f0c
DTITLE=Various Artist - A Collection Of The Blues - Disk Three
DYEAR=1994
DGENRE=Blues
TTITLE0=Howlin' Wolf - Smokestack Lightning
TTITLE1=Babyface Leroy - Rollin' and Tumblin'
TTITLE2=Lightnin' Hopkins - Corrine, Corrina
TTITLE3=Big Joe Williams - Baby Please Don't Go
TTITLE4=Sonny Boy Williamson - Mighty Long Time
TTITLE5=Lead Belly - Defense Blues
TTITLE6=Muddy Waters - Hoochie Coochie Man
TTITLE7=Piano Red - Blues, Blues, Blues
TTITLE8=Scrapper Blackwell - Life Of A Millionaire
TTITLE9=Sonny Boy Williamson - Born Blind
TTITLE10=Lowell Fulson - River Blues Part 2
TTITLE11=Jimmy Reed - Big Boss Man
EXTD=
EXTT0=
EXTT1=
EXTT2=
EXTT3=
EXTT4=
EXTT5=
EXTT6=
EXTT7=
EXTT8=
EXTT9=
EXTT10=
EXTT11=
PLAYORDER=
